<?xml version="1.0" encoding="UTF-8"?>
<svg id="Camada_2" data-name="Camada 2" xmlns="http://www.w3.org/2000/svg" viewBox="0 0 911.76 358.59">
  <defs>
    <style>
      .cls-1 {
        fill: #eef6f9;
      }

      .cls-2 {
        fill: #fdcb3d;
      }
    </style>
  </defs>
  <g id="Camada_1-2" data-name="Camada 1">
    <g>
      <g>
        <path class="cls-1" d="M526.04,346.63l-13.71,11.91h-71.72s.11-13.27.11-13.27l7.26-.07.03-74.05-7.38-.09.13-13.23,71.48-.05,13.77,11.42-.02,28.48-9.98,8.58,10.01,8.45.02,31.93ZM506.87,296.39l-.03-21.95c-.91-1.13-2.99-3.13-4.24-3.39l-35.83.08v29.05s35.91.02,35.91.02c1.19-.62,3.47-2.55,4.19-3.8ZM506.88,341.25l-.06-24.55-3.72-3.5-36.35.1.05,32.1,34.06.05c2.67.05,5.38-1.25,6.02-4.2Z"/>
        <polygon class="cls-1" points="588.61 313.19 570.57 313.38 570.62 345.39 607.94 345.49 608.13 336.48 623.5 336.48 623.51 358.55 544.52 358.56 544.57 345.51 551.95 345.04 551.98 271.39 544.56 270.99 544.54 257.89 623.38 257.76 623.45 279.35 608.03 279.38 607.93 271.05 570.62 271.08 570.57 300.2 588.58 300.23 588.77 296 601.89 296.03 601.92 318.25 588.75 318.27 588.61 313.19"/>
        <polygon class="cls-1" points="381.98 257.81 381.89 271.04 375.48 271.1 344.97 358.49 325.07 358.59 314.52 327.62 295.4 271.17 288.26 271.04 288.25 257.91 320.03 257.75 320.02 271 314.87 271.22 335.3 333.93 355.98 271.2 349.95 271.08 350.01 257.86 381.98 257.81"/>
        <polygon class="cls-1" points="426.52 358.54 393.9 358.56 393.93 345.23 401.03 345.33 401.04 271.18 393.86 271.04 393.92 257.84 426.46 257.75 426.55 270.98 419.41 271.29 419.42 345.24 426.51 345.52 426.52 358.54"/>
      </g>
      <g>
        <path class="cls-1" d="M427.04,182.22c19.82-22.71,34.81-51.76,48.59-78.81-6.85-11.54-2.46-24.46,7.12-33.55,7.95-7.54,20.6-6.5,27.26,2.36,2.67,3.55,2.4,8.28-.36,11.61l-9.13,10.98c-.52.62-1.25,2.11-1.28,2.82-.04.89,1.39,2.83,2.23,3.28l12.24,6.52c8.09,4.31,11.2,13.56,6.98,21.45l-10.83,20.24c-6.82,12.74-20.32,33.52-16.92,44.35,8.44,2.44,29.26-23.81,32.27-30.7,9.02-20.61,18.81-40.36,35.84-55.48,8.99-7.98,19.03-14.09,31.03-15.84s24.02,3.03,30.19,13.39c2.84,4.77,3.49,10.27.13,14.96-1.88,2.62-8.38,3.88-10.09,1.52-.71-2.93-1.26-6.48-2.9-7.94-6.73-5.98-18.63,2.07-26.23,10.09-12.61,13.31-22.38,28.8-28.96,45.99-2.93,7.65-5.96,18.58-2.27,21.81.94.82,4.11-.03,4.96-1.08l14.4-17.73,27.93-42c1.5-2.25,5.02-4.4,7.56-4.01,9.14,1.39,17.44,8.36,14.59,16.12-7.02,12.85-11.68,26.16-14.19,40.55l1.35,4.18c1.51,4.68,19.72-16,22.53-23.6,8.36-22.58,17.15-44.52,31.46-63.75,5.48-7.37,13.07-9.12,20.99-3.98,3.55,2.3,9.24,6.87,7.62,12.33-12.85,20.46-24.18,41.37-31.58,64.47-2.17,6.78-4.22,15.43-1.54,18.17,3.11,3.17,12.25-4.21,17.24-10.44l14.23-17.78c10.41-30.1,34.71-67.1,67.51-71.34,13.36-1.72,26.99,6.05,30.81,18.66,1.17,3.87-.04,8.25-2.55,10.65-1.86,1.78-7.19,3-9.24.89-.62-2.77-.95-6.39-2.69-8.07-6.12-5.89-17.72,1.27-25.25,8.91-13.91,14.13-24.44,31.06-30.96,49.91-2.44,7.07-4.45,17.17-1.41,19.11,3.87,2.48,15.22-12.23,20.45-20.1l26.71-40.26c1.14-1.72,4.31-4.52,6.14-4.51,5.91.03,10.81,3.17,14.4,7.21,2.96,3.34,2.85,7.78.43,11.34-6.48,12.08-11.14,24.38-12.87,38.04.46,1.34,1.18,3.22,1.96,3.75s2.58-.2,4.06-.74l19.84-24.06,10.36-30.84c14.14-33.01,31.48-63.96,53.17-92.59,7.76-10.24,15.88-19.5,26.02-26.87,5.41-3.93,12.03-5.4,17.94-2.94,3.54,1.47,6.4,4.44,7.15,7.43,1,4.01-.58,7.1-3.03,10.41-32.69,44.08-68.25,99.8-83.79,152.2-1.59,5.36-3.15,11.88-1.27,16.78,1.54,4.02,7.01,2.53,9.87.8,23.96-14.44,44.95-44.43,60.83-68.29,1.03-1.55,5.77-1.45,6.97-.17,2.98,3.15,3.2,7.58,1.05,11.33-12.08,21.08-25.68,40.76-42.3,58.52-15.07,16.11-36.11,30.45-54.35,17.86-7.82-5.39-12.53-14.8-12.54-26.03-9.39,10.92-18.59,25.58-31.56,22.8-4.46-.96-8.44-5.13-10.75-10.02-3.76-7.95-2.39-16.26-2.37-26.01-7.29,11.7-13.38,22.84-22.58,32.17-8.53,8.65-21.25,9.06-30.02.92-5.92-5.49-8.37-12.69-9.28-21.05-10.8,14.57-25.24,32.29-41.57,24.83-9.34-4.27-14.67-13.36-15.27-23.52-9.41,11.13-19.09,25.81-31.51,22.95-13.06-3.01-15.83-22.51-13.02-38.02l-11.95,19.58c-3.27,5.35-7.61,10.33-12.05,14.75-8.88,8.83-22.44,8.09-30.84-1.12-4.59-5.04-6.22-11.56-7.86-18.63-11.96,15.93-27.28,31.96-44.3,23.78-15.96-7.67-14.66-29.01-7.93-46.02,5.64-14.26,12.81-27.12,20.42-40.5.89-1.57,2.94-5.48,2.21-7.04-1.2-2.59-4.9-5.14-7.44-6.43-16.88,29.94-36.22,68.03-59.74,91.51-4.97,4.96-10.58,9.08-17.48,10.31-13.17,2.35-24.78-6.41-26.05-19.76-1.81-18.97,8.28-37.19,17.27-53.81l11.88-21.98-8.42-6.39c-8.67,15.75-41.21,75.48-52.83,66.96-1.85-1.35-3.33-4.97-3.33-7.64,20.09-17.54,33.57-43.8,46.02-67.97-5.71-11.89-.94-23.39,8.19-32.39,8.16-8.06,20.88-7.56,28.32,1.32,1.88,2.24,3.23,7.8,1.26,9.95l-13.78,15.05c1.71,1.88,3.74,3.52,5.68,4.66l12.02,7.05c5.74,3.36,8.12,11.58,4.92,17.51l-11.87,22c-5.77,10.7-22.75,38.6-17.59,43.65,2.84,2.78,12.02-4.83,17.35-10.95Z"/>
        <path class="cls-1" d="M302.37,224.79c-14.91-11.24-11.25-35.17-6.1-53.44l6.98-24.77-51.51,4.77c-10.58,18.87-20.76,37.83-29.92,57.67l-8,21.44c-3.78.69-8.3-.79-11.79-3.39-8.51-6.33-12.27-17.57-9.06-28.02,2.43-7.92,6.29-15.27,10.51-22.39l13.08-22.09c-7.24-.29-13.6-1.31-17.74-6.75s-5.66-12.74-1.62-18.75c11.88,1.14,24.58,3.34,35.24-1.12,11.93-5,18.58-16.11,17.91-28.35,14.66-20.81,30.86-39.38,49.69-56.29,21.85-19.62,63.09-48.54,88.85-32.23,7.04,4.46,7.6,11.44,4.02,18.11l-20.23,37.72c-9.96,18.57-18.06,37.41-25.83,57.14,4.33.36,8.75,1.04,11.23,3.99,3.41,4.05,3.74,10.9.77,15.16l-19.52,1.15c-5.43,15.43-9.99,31.29-13.38,47.86-1.4,6.86-1.76,14.46,2.27,16.75s9.94-5.1,12.95-1.86c3.43,3.69,1.96,9.34-1.26,13.01-9.63,10.97-25.59,13.69-37.54,4.68ZM266.99,126.21l44.99-2.43c11.97-30.94,26.17-60.53,43.44-89.61-10.94,5.55-19.51,12.33-28.61,20.01-23.61,20.88-43.41,45.43-59.82,72.03Z"/>
        <path class="cls-1" d="M104.25,227.88c-6.71,3.58-14.46,2.13-21.12.11-9.81-2.97-14.61,1.88-25.24,1.56-9.93-.3-17.6-7.2-17.84-17.37l-.25-10.77-8.08-6.99c-7.28-6.3-7.88-17.87.51-24.31,22.3-17.1,47.58-30.07,75.58-37.75l-13.33,22.36c-2.37,3.97-4.43,7.83-4.73,13.21,6.21-3.2,8.57-8.73,12.43-13.55l14.2-17.69c2.41,8.91,3.91,17.4,2.95,26.27l-5.05,46.48c-.78,7.14-3.19,14.78-10.03,18.43Z"/>
        <path class="cls-1" d="M98.31,125.61c-11.88,7.55-22.41,14.05-34.81,18.99-14.04,5.6-33.81,8.98-47.71,3.91-6.37-2.32-11.27-8.23-10.51-15.2.43-3.99,2.08-8.18,3.48-11.99C4.65,115.78.4,109.51.02,102.25c-.46-8.99,5.95-15.71,13.85-19.11,3.93-1.69,6.16-3.74,7.23-7.89,2.99-11.5,14.08-17.69,25.65-14.48,25.12,6.96,45.61,24.67,55.31,49.1-4.66,3.16-8.73,3.2-13.98,2.05-8.88-1.94-20.82-3.25-21.48.82-.12.77,1.62,2.62,2.49,2.81l17.81,3.93c4.2.93,7.66,2.97,11.4,6.13Z"/>
        <path class="cls-1" d="M124.85,94.69c-.23-11.44-3.1-31.78-8.33-30.06-6.95,2.29-3.81,22.86-2.3,34.99-21.72-12.72-38-31.55-47.97-53.38-2.61-5.7-1.94-12.25,1.31-17.61,2.4-3.96,8.1-7.21,13.9-7.78,12.54-1.24,12.07-11.06,24.18-17.72,10.45-5.75,22.59-3.49,29.5,5.98,5.05,6.92,14.28,1.13,21.67,8.88,8.49,8.91.44,29.07-6.63,41.5s-15.68,23.61-25.3,35.19Z"/>
        <path class="cls-1" d="M184.77,131.31l-35.69-11.11,26.91-16.87.95-3.42c.44-1.58-4.97-2.12-11.83,1.22l-18.87,9.19,11.68-25.16,16.88-29.13c2.68-4.62,6.9-8.01,11.54-10.37,9.62-4.89,20.02-1.64,25.21,8.18l7.37.24c7.07.23,12.94,1.92,16.65,7.2,8.83,12.56-3.92,21.13,1.17,29.06,3.44,5.36,4.06,11.33,1.43,17.34-6.13,13.98-22.49,12.74-38.21,10.61-7.47-1.01-13.65,4.62-15.19,13.01Z"/>
        <path class="cls-1" d="M158.09,216.15l-11.81,5.4c-3.59,1.64-9.15,1.86-12.85.04-10.21-5.04-9.95-24.12-10.25-38.35-.33-16.1,1.36-31.07,6.84-46.98l22.74,22.29c.7.69,3.08,1.5,3.83.94s1.12-3.48.62-4.32l-16.13-27.15c14.9-2.86,30.33,3.36,43.25,11.71.74,9.99,6.41,17.82,15.59,22.25l-14.9,27.26c-5.18,9.48-5.4,19.65-1.72,30.21-6.68,5.17-16.18,1.41-25.22-3.3Z"/>
        <path class="cls-1" d="M700.9,80.91c-1.07,1.33-5.6,1.33-7.16.56-7.21-3.54-11.28-11.16-9.49-19.22,2.22-10.04,7.53-19.79,15.79-25.9,6.95-5.15,15.55-1.89,21.31,3.56,3.34,3.15,5.77,8.18,2.56,12.2l-23,28.8Z"/>
      </g>
      <path class="cls-2" d="M110.15,117.93c-3.06-2.65-2.9-7.43.32-9.88,4.84-3.68,9.14-7.77,13.2-12.68,11.24-13.56,21.32-27.4,30.3-42.61l17.5-29.62s0-.05-.02-.06c-2.38-.91-4.2-2.11-4.54-3.48-.59-2.36,1.87-4.85,4.07-4.34,1.08.26,2.98.97,3.32.35l1.77-3.26c.74-1.37,4.96-.44,5.52,1.19.5,1.46-.62,4.33-1.75,5.92-.01.02-.01.04,0,.05l1.34,1.47c1.23,1.35,1.48,3.75.33,5.18s-2.88.58-5.89-1.42c-.02-.02-.05,0-.07.02-12.85,26.25-26.92,51.62-43.34,76.06h0s-12.8,16.31-12.8,16.31c-2.24,2.86-6.42,3.26-9.16.89-.04-.03-.08-.07-.11-.1Z"/>
    </g>
  </g>
</svg>